<svg width="14" height="14" viewBox="0 0 14 14" fill="none" xmlns="http://www.w3.org/2000/svg">
    <path d="M9 0.748933C8.9998 0.607805 8.95978 0.469598 8.88455 0.350195C8.80932 0.230791 8.70193 0.135037 8.57471 0.0739364C8.4475 0.0128355 8.30562 -0.0111324 8.1654 0.00478758C8.02517 0.0207075 7.89228 0.075869 7.782 0.163933L4.2375 2.99893H0.75C0.551088 2.99893 0.360322 3.07795 0.21967 3.2186C0.0790178 3.35926 0 3.55002 0 3.74893V9.74893C0 9.94785 0.0790178 10.1386 0.21967 10.2793C0.360322 10.4199 0.551088 10.4989 0.75 10.4989H4.2375L7.782 13.3339C7.89228 13.422 8.02517 13.4772 8.1654 13.4931C8.30562 13.509 8.4475 13.485 8.57471 13.4239C8.70193 13.3628 8.80932 13.2671 8.88455 13.1477C8.95978 13.0283 8.9998 12.8901 9 12.7489V0.748933ZM4.968 4.33393L7.5 2.30893V11.1889L4.968 9.16393C4.83524 9.05742 4.6702 8.99924 4.5 8.99893H1.5V4.49893H4.5C4.6702 4.49863 4.83524 4.44044 4.968 4.33393ZM13.5375 6.74893C13.5387 7.63553 13.3646 8.51361 13.0253 9.33272C12.686 10.1518 12.1882 10.8958 11.5605 11.5219L10.5 10.4614C10.9882 9.97443 11.3754 9.39574 11.6393 8.75862C11.9031 8.12151 12.0385 7.43852 12.0375 6.74893C12.0384 6.05935 11.903 5.3764 11.6391 4.73929C11.3753 4.10218 10.9882 3.52349 10.5 3.03643L11.5605 1.97593C12.1882 2.60204 12.686 3.34603 13.0253 4.16514C13.3646 4.98425 13.5387 5.86234 13.5375 6.74893Z" fill="#686868"/>
</svg>
