<svg width="20" height="14" viewBox="0 0 20 14" fill="none" xmlns="http://www.w3.org/2000/svg">
    <path d="M8.5755 0.0741716C8.70257 0.135385 8.8098 0.231188 8.88489 0.350583C8.95997 0.469979 8.99987 0.608128 9 0.749172V12.7492C8.9998 12.8903 8.95978 13.0285 8.88455 13.1479C8.80932 13.2673 8.70193 13.3631 8.57471 13.4242C8.4475 13.4853 8.30562 13.5092 8.1654 13.4933C8.02517 13.4774 7.89228 13.4222 7.782 13.3342L4.2375 10.4992H0.75C0.551088 10.4992 0.360322 10.4202 0.21967 10.2795C0.0790176 10.1389 0 9.94808 0 9.74917V3.74917C0 3.55026 0.0790176 3.35949 0.21967 3.21884C0.360322 3.07819 0.551088 2.99917 0.75 2.99917H4.2375L7.782 0.164171C7.89236 0.0759533 8.02539 0.0207012 8.16578 0.00477853C8.30616 -0.0111441 8.44819 0.0129104 8.5755 0.0741716ZM7.5 2.30917L4.968 4.33417C4.83524 4.44068 4.6702 4.49887 4.5 4.49917H1.5V8.99917H4.5C4.6702 8.99947 4.83524 9.05766 4.968 9.16417L7.5 11.1892V2.30917ZM19.281 3.21817C19.3508 3.28784 19.4063 3.3706 19.4441 3.46172C19.4819 3.55284 19.5013 3.65052 19.5013 3.74917C19.5013 3.84782 19.4819 3.9455 19.4441 4.03662C19.4063 4.12774 19.3508 4.2105 19.281 4.28017L16.8105 6.74917L19.281 9.21817C19.4218 9.359 19.5009 9.55001 19.5009 9.74917C19.5009 9.94834 19.4218 10.1393 19.281 10.2802C19.1402 10.421 18.9492 10.5001 18.75 10.5001C18.5508 10.5001 18.3598 10.421 18.219 10.2802L15.75 7.80967L13.281 10.2802C13.1402 10.421 12.9492 10.5001 12.75 10.5001C12.5508 10.5001 12.3598 10.421 12.219 10.2802C12.0782 10.1393 11.9991 9.94834 11.9991 9.74917C11.9991 9.55001 12.0782 9.359 12.219 9.21817L14.6895 6.74917L12.219 4.28017C12.1493 4.21044 12.094 4.12766 12.0562 4.03655C12.0185 3.94544 11.9991 3.84779 11.9991 3.74917C11.9991 3.65056 12.0185 3.55291 12.0562 3.4618C12.094 3.37069 12.1493 3.2879 12.219 3.21817C12.3598 3.07734 12.5508 2.99822 12.75 2.99822C12.8486 2.99822 12.9463 3.01765 13.0374 3.05539C13.1285 3.09313 13.2113 3.14844 13.281 3.21817L15.75 5.68867L18.219 3.21817C18.2887 3.14833 18.3714 3.09291 18.4626 3.0551C18.5537 3.01729 18.6513 2.99783 18.75 2.99783C18.8487 2.99783 18.9463 3.01729 19.0374 3.0551C19.1286 3.09291 19.2113 3.14833 19.281 3.21817Z" fill="#686868"/>
</svg>
