<svg width="17" height="17" viewBox="0 0 17 17" fill="none" xmlns="http://www.w3.org/2000/svg">
    <path fill-rule="evenodd" clip-rule="evenodd" d="M15.1938 1.29971L14.5471 3.8867C14.4683 4.20188 14.6599 4.52125 14.9751 4.60004C15.2903 4.67884 15.6096 4.48721 15.6884 4.17204L16.453 1.11384C16.6138 0.470678 16.0344 -0.113442 15.3899 0.042114L12.3327 0.780074C12.0169 0.856302 11.8227 1.17411 11.8989 1.48991C11.9751 1.80571 12.2929 1.99993 12.6087 1.9237L15.1938 1.29971Z" fill="white"/>
    <path fill-rule="evenodd" clip-rule="evenodd" d="M0.411865 2.85293C0.411865 2.36562 0.806909 1.97058 1.29422 1.97058H9.52951C9.85439 1.97058 10.1177 2.23394 10.1177 2.55882C10.1177 2.88369 9.85439 3.14705 9.52951 3.14705H1.58834V14.9118H13.353V7.2647C13.353 6.93983 13.6164 6.67646 13.9413 6.67646C14.2662 6.67646 14.5295 6.93983 14.5295 7.2647V15.2059C14.5295 15.6932 14.1345 16.0882 13.6472 16.0882H1.29422C0.806909 16.0882 0.411865 15.6932 0.411865 15.2059V2.85293Z" fill="white"/>
    <path fill-rule="evenodd" clip-rule="evenodd" d="M16.2689 0.378223C16.4986 0.607943 16.4986 0.980393 16.2689 1.21011L6.12186 11.3572C5.89214 11.5869 5.51969 11.5869 5.28997 11.3572C5.06025 11.1275 5.06025 10.755 5.28997 10.5253L15.437 0.378223C15.6667 0.148503 16.0392 0.148503 16.2689 0.378223Z" fill="white"/>
</svg>
