<svg width="14" height="13" viewBox="0 0 14 13" fill="none" xmlns="http://www.w3.org/2000/svg">
    <path fill-rule="evenodd" clip-rule="evenodd" d="M7.64974 1.86632C8.9059 0.646662 10.8546 0.678465 12.0746 1.96173C13.3395 3.29209 13.3395 5.4591 12.0746 6.78946L12.0641 6.80051L8.12372 11.5012C7.53809 12.1998 6.46191 12.1998 5.87628 11.5012L1.93587 6.80051L1.92536 6.78946C0.660538 5.4591 0.660538 3.29209 1.92536 1.96173C3.15544 0.667915 5.12619 0.646224 6.3811 1.89665C6.63541 2.49154 7.45899 2.40552 7.64974 1.86632ZM7 1.13743C8.64525 -0.428631 11.1971 -0.377529 12.7832 1.29074C14.402 2.99344 14.4056 5.7417 12.794 7.44905L8.87287 12.1267C7.89682 13.2911 6.10318 13.2911 5.12713 12.1267L1.20603 7.44905C-0.405599 5.7417 -0.402002 2.99344 1.21682 1.29074C2.80291 -0.377528 5.35475 -0.428631 7 1.13743Z" fill="white"/>
</svg>
