<svg width="13" height="15" viewBox="0 0 13 15" fill="none" xmlns="http://www.w3.org/2000/svg">
    <path fill-rule="evenodd" clip-rule="evenodd" d="M6.39167 2.95001C3.40473 2.95001 0.983333 5.3714 0.983333 8.35834C0.983333 11.3453 3.40473 13.7667 6.39167 13.7667C9.37861 13.7667 11.8 11.3453 11.8 8.35834C11.8 5.3714 9.37861 2.95001 6.39167 2.95001ZM0 8.35834C0 4.82832 2.86165 1.96667 6.39167 1.96667C9.92169 1.96667 12.7833 4.82832 12.7833 8.35834C12.7833 11.8884 9.92169 14.75 6.39167 14.75C2.86165 14.75 0 11.8884 0 8.35834Z" fill="#333333"/>
    <path fill-rule="evenodd" clip-rule="evenodd" d="M4.58887 0.491667C4.58887 0.220127 4.80899 0 5.08053 0H7.70276C7.9743 0 8.19442 0.220127 8.19442 0.491667C8.19442 0.763207 7.9743 0.983333 7.70276 0.983333H5.08053C4.80899 0.983333 4.58887 0.763207 4.58887 0.491667Z" fill="#333333"/>
    <path fill-rule="evenodd" clip-rule="evenodd" d="M6.39163 -2.14914e-08C6.66317 -9.62204e-09 6.8833 0.220127 6.8833 0.491667L6.8833 2.45833C6.8833 2.72987 6.66317 2.95 6.39163 2.95C6.12009 2.95 5.89997 2.72987 5.89997 2.45833L5.89997 0.491667C5.89997 0.220127 6.12009 -3.33608e-08 6.39163 -2.14914e-08Z" fill="#333333"/>
    <path fill-rule="evenodd" clip-rule="evenodd" d="M8.7059 6.04403C8.8979 6.23604 8.8979 6.54734 8.7059 6.73935L6.73923 8.70602C6.54722 8.89803 6.23592 8.89803 6.04391 8.70602C5.8519 8.51401 5.8519 8.2027 6.04391 8.0107L8.01057 6.04403C8.20258 5.85202 8.51389 5.85202 8.7059 6.04403Z" fill="#333333"/>
    <path fill-rule="evenodd" clip-rule="evenodd" d="M11.3282 3.09396C11.5202 3.28596 11.5202 3.59727 11.3282 3.78928L11.0005 4.11706C10.8085 4.30906 10.4971 4.30906 10.3051 4.11706C10.1131 3.92505 10.1131 3.61374 10.3051 3.42173L10.6329 3.09396C10.8249 2.90195 11.1362 2.90195 11.3282 3.09396Z" fill="#333333"/>
</svg>
