<svg width="15" height="18" viewBox="0 0 15 18" fill="none" xmlns="http://www.w3.org/2000/svg">
    <path fill-rule="evenodd" clip-rule="evenodd" d="M7.5 3.48207C3.99512 3.48207 1.15385 6.3404 1.15385 9.86634C1.15385 13.3923 3.99512 16.2506 7.5 16.2506C11.0049 16.2506 13.8462 13.3923 13.8462 9.86634C13.8462 6.3404 11.0049 3.48207 7.5 3.48207ZM0 9.86634C0 5.69932 3.35786 2.32129 7.5 2.32129C11.6421 2.32129 15 5.69932 15 9.86634C15 14.0334 11.6421 17.4114 7.5 17.4114C3.35786 17.4114 0 14.0334 0 9.86634Z" fill="white"/>
    <path fill-rule="evenodd" clip-rule="evenodd" d="M5.38458 0.580388C5.38458 0.259849 5.64288 0 5.96151 0H9.03843C9.35705 0 9.61535 0.259849 9.61535 0.580388C9.61535 0.900928 9.35705 1.16078 9.03843 1.16078H5.96151C5.64288 1.16078 5.38458 0.900928 5.38458 0.580388Z" fill="white"/>
    <path fill-rule="evenodd" clip-rule="evenodd" d="M7.50007 -2.14914e-08C7.8187 -9.62204e-09 8.077 0.259849 8.077 0.580388L8.077 2.90194C8.077 3.22248 7.8187 3.48233 7.50007 3.48233C7.18145 3.48233 6.92315 3.22248 6.92315 2.90194L6.92315 0.580388C6.92315 0.259849 7.18145 -3.33608e-08 7.50007 -2.14914e-08Z" fill="white"/>
    <path fill-rule="evenodd" clip-rule="evenodd" d="M10.2154 7.13435C10.4407 7.361 10.4407 7.72848 10.2154 7.95514L7.90775 10.2767C7.68245 10.5034 7.31716 10.5034 7.09186 10.2767C6.86656 10.05 6.86656 9.68256 7.09186 9.4559L9.39955 7.13435C9.62485 6.90769 9.99014 6.90769 10.2154 7.13435Z" fill="white"/>
    <path fill-rule="evenodd" clip-rule="evenodd" d="M13.2925 3.65241C13.5178 3.87907 13.5178 4.24655 13.2925 4.47321L12.9079 4.86013C12.6826 5.08679 12.3173 5.08679 12.092 4.86013C11.8667 4.63348 11.8667 4.266 12.092 4.03934L12.4766 3.65241C12.7019 3.42576 13.0672 3.42576 13.2925 3.65241Z" fill="white"/>
</svg>
