<svg width="12" height="13" viewBox="0 0 12 13" fill="none" xmlns="http://www.w3.org/2000/svg">
    <path fill-rule="evenodd" clip-rule="evenodd" d="M6.23196 1.18841C6.39221 1.02526 6.60956 0.933594 6.8362 0.933594H11.1455C11.6174 0.933594 12 1.32311 12 1.80361V5.75598C12 5.98673 11.91 6.20802 11.7497 6.37118L5.55441 12.6788C5.2207 13.0185 4.67964 13.0185 4.34593 12.6788L0.250284 8.50889C-0.0834284 8.16913 -0.0834279 7.61827 0.250284 7.27851L6.23196 1.18841ZM11.1455 1.80361H6.8362L0.854525 7.8937L4.95017 12.0636L11.1455 5.75598V1.80361Z" fill="#8F8F8F"/>    <path d="M10.5045 3.54369C10.5045 4.14431 10.0262 4.63121 9.43632 4.63121C8.84639 4.63121 8.36816 4.14431 8.36816 3.54369C8.36816 2.94307 8.84639 2.45618 9.43632 2.45618C10.0262 2.45618 10.5045 2.94307 10.5045 3.54369Z" fill="#8F8F8F"/>
</svg>
