<svg width="21" height="21" viewBox="0 0 21 21" fill="none" xmlns="http://www.w3.org/2000/svg">
<path fill-rule="evenodd" clip-rule="evenodd" d="M1.3125 10.5C1.3125 12.9367 2.28047 15.2736 4.00346 16.9965C5.72645 18.7195 8.06332 19.6875 10.5 19.6875C12.9367 19.6875 15.2736 18.7195 16.9965 16.9965C18.7195 15.2736 19.6875 12.9367 19.6875 10.5C19.6875 8.06332 18.7195 5.72645 16.9965 4.00346C15.2736 2.28047 12.9367 1.3125 10.5 1.3125C8.06332 1.3125 5.72645 2.28047 4.00346 4.00346C2.28047 5.72645 1.3125 8.06332 1.3125 10.5ZM21 10.5C21 13.2848 19.8938 15.9555 17.9246 17.9246C15.9555 19.8938 13.2848 21 10.5 21C7.71523 21 5.04451 19.8938 3.07538 17.9246C1.10625 15.9555 0 13.2848 0 10.5C0 7.71523 1.10625 5.04451 3.07538 3.07538C5.04451 1.10625 7.71523 0 10.5 0C13.2848 0 15.9555 1.10625 17.9246 3.07538C19.8938 5.04451 21 7.71523 21 10.5ZM11.1562 15.0938C11.1562 15.2678 11.0871 15.4347 10.964 15.5578C10.841 15.6809 10.674 15.75 10.5 15.75C10.326 15.75 10.159 15.6809 10.036 15.5578C9.91289 15.4347 9.84375 15.2678 9.84375 15.0938V7.49044L7.02713 10.3084C6.9039 10.4316 6.73677 10.5008 6.5625 10.5008C6.38823 10.5008 6.2211 10.4316 6.09787 10.3084C5.97465 10.1851 5.90542 10.018 5.90542 9.84375C5.90542 9.66948 5.97465 9.50235 6.09787 9.37912L10.0354 5.44162C10.0963 5.38051 10.1688 5.33202 10.2485 5.29894C10.3282 5.26586 10.4137 5.24883 10.5 5.24883C10.5863 5.24883 10.6718 5.26586 10.7515 5.29894C10.8312 5.33202 10.9037 5.38051 10.9646 5.44162L14.9021 9.37912C15.0254 9.50235 15.0946 9.66948 15.0946 9.84375C15.0946 10.018 15.0254 10.1851 14.9021 10.3084C14.7789 10.4316 14.6118 10.5008 14.4375 10.5008C14.2632 10.5008 14.0961 10.4316 13.9729 10.3084L11.1562 7.49044V15.0938Z" fill="#686868"/>
</svg>
