<svg width="16" height="16" viewBox="0 0 16 16" fill="none" xmlns="http://www.w3.org/2000/svg">
<path d="M10.2982 8.53117C10.0053 8.23827 10.0053 7.7634 10.2982 7.47051L15.248 2.52076C15.7361 2.03261 15.7361 1.24115 15.248 0.75299C14.7598 0.264834 13.9684 0.264831 13.4802 0.752989L8.53047 5.70275C8.23758 5.99564 7.7627 5.99565 7.46981 5.70275L2.52003 0.752987C2.03187 0.264832 1.24041 0.264834 0.752258 0.752994C0.264109 1.24115 0.264113 2.0326 0.752268 2.52075L5.70205 7.47051C5.99495 7.7634 5.99495 8.23827 5.70205 8.53117L0.752262 13.481C0.26411 13.9691 0.264112 14.7606 0.752262 15.2487C1.24041 15.7369 2.03186 15.7369 2.52002 15.2487L7.46981 10.2989C7.7627 10.006 8.23758 10.006 8.53047 10.2989L13.4802 15.2487C13.9684 15.7369 14.7598 15.7369 15.248 15.2487C15.7361 14.7606 15.7361 13.9691 15.248 13.481L10.2982 8.53117Z" fill="#3B82F6" stroke="#3B82F6" stroke-width="0.5"/>
</svg>
