<svg width="23" height="23" viewBox="0 0 23 23" fill="none" xmlns="http://www.w3.org/2000/svg">
<path d="
M10.5938 9.09419V16.0938 C10.5938 16.3341 10.6892 16.5646 10.8592 16.7346 C11.0291 16.9045 11.2596
17 11.5 17 C11.7404 17 11.9709 16.9045 12.1408 16.7346 C12.3108 16.5646 12.4062 16.3341 12.4062 16.0938 V9.09419 L14.7961
11.4851 L14.7961 11.4852 C14.9662 11.6553 15.1969 11.7508 15.4375 11.7508 C15.6781 11.7508 15.9088 11.6553 16.0789
11.4852 C16.249 11.315 16.3446 11.0843 16.3446 10.8438 C16.3446 10.6032 16.249 10.3725 16.0789 10.2023 L12.1416
6.26507 L10.5938 7.09419Z

M10.5938 9.09419 L8.20394 11.4851 L8.2039 11.4852 C8.03379 11.6553 7.80307 11.7508 7.5625
11.7508C7.32193 11.7508 7.09121 11.6553 6.9211 11.4852 C6.75099 11.315 6.65542 11.0843 6.65542 10.8438 C6.65542
10.6032 6.75099 10.3725 6.9211 10.023 L10.8584 6.3507 L11 9.09419Z

M5.18023 17.8198C3.50413 16.1437 2.5625 13.8704 2.5625 11.5C2.5625 9.12963 3.50413 6.85634 5.18023 5.18023C6.85634
3.50413 9.12963 2.5625 11.5 2.5625 C13.8704 2.5625 16.1437 3.50413 17.8198 5.18023C19.4959 6.85634 20.4375 9.12963
20.4375 11.5C20.4375 13.8704 19.4959 16.1437 17.8198 17.8198 C16.1437 19.4959 13.8704 20.4375 11.5 20.4375 C9.12963
20.4375 6.85634 19.4959 5.18023 17.8198Z

M19.1014 19.1014 C21.1174 17.0854 22.25 14.3511 22.25 11.5C22.25 8.64892 21.1174 5.91462 19.1014 3.8986C17.0854 1.88259 14.3511
0.75 11.5 0.75C8.64892 0.75 5.91462 1.88259 3.8986 3.8986C1.88259 5.91462 0.75 8.64892 0.75 11.5C0.75 14.3511 1.88259
17.0854 3.8986 19.1014C5.91462 21.1174 8.64892 22.25 11.5 22.25C14.3511 22.25 17.0854 21.1174 19.1014 19.1014Z

M11.1527 6.06803C11.0427 6.11368 10.9427 6.18056 10.8586 6.26485H12.1414C12.0573 6.18056 11.9573 6.11368 11.8473 6.06803C11.7372
6.02234 11.6192 5.99883 11.5 5.99883C11.3808 5.99883 11.2628 6.02234 11.1527 6.06803Z"
      fill="#3B82F6" stroke="#3B82F6" stroke-width="0.5"/>
</svg>
