<svg width="16" height="16" viewBox="0 0 16 16" fill="none" xmlns="http://www.w3.org/2000/svg">
<path d="M9.76789 8.35439C9.57263 8.15913 9.57263 7.84255 9.76789 7.64728L15.4248 1.99043C15.62 1.79517 15.62 1.47858 15.4248 1.28332L14.7177 0.57621C14.5224 0.380947 14.2058 0.380948 14.0105 0.576211L8.35369 6.23308C8.15843 6.42834 7.84185 6.42835 7.64659 6.23308L1.9897 0.576211C1.79443 0.380948 1.47785 0.380949 1.28259 0.576214L0.575489 1.28332C0.380229 1.47858 0.380231 1.79517 0.575493 1.99043L6.23238 7.64728C6.42765 7.84254 6.42765 8.15913 6.23239 8.35439L0.575492 14.0113C0.38023 14.2065 0.38023 14.5231 0.575493 14.7184L1.28259 15.4255C1.47785 15.6207 1.79443 15.6207 1.98969 15.4255L7.64659 9.76859C7.84185 9.57333 8.15843 9.57333 8.35369 9.76859L14.0105 15.4255C14.2058 15.6207 14.5224 15.6207 14.7177 15.4255L15.4248 14.7184C15.62 14.5231 15.62 14.2065 15.4248 14.0113L9.76789 8.35439Z" fill="#3B82F6"/>
</svg>
